<svg width="50" height="54" viewBox="0 0 50 54" fill="none" xmlns="http://www.w3.org/2000/svg">
<path fill-rule="evenodd" clip-rule="evenodd" d="M20.8938 22.5854C22.0262 23.2393 23.4418 22.422 23.4418 21.1144V1.7012C23.4418 0.393566 22.0262 -0.423704 20.8938 0.230112L4.08149 9.93669C2.94905 10.5905 2.94905 12.225 4.0815 12.8789L20.8938 22.5854ZM26.4751 21.129C26.4751 22.4367 27.8907 23.2539 29.0231 22.6001L45.8354 12.8935C46.9678 12.2397 46.9678 10.6052 45.8354 9.95136L29.0231 0.244779C27.8906 -0.409037 26.4751 0.408235 26.4751 1.71587V21.129ZM19.3603 28.1528C20.4927 27.499 20.4927 25.8644 19.3603 25.2106L2.548 15.504C1.41555 14.8502 0 15.6675 0 16.9751V36.3883C0 37.6959 1.41556 38.5132 2.548 37.8593L19.3603 28.1528ZM30.6396 25.2388C29.5072 25.8926 29.5072 27.5272 30.6396 28.181L47.4519 37.8876C48.5844 38.5414 49.9999 37.7241 49.9999 36.4165V17.0033C49.9999 15.6957 48.5844 14.8784 47.4519 15.5322L30.6396 25.2388ZM20.8679 30.792C22.0004 30.1382 23.4159 30.9554 23.4159 32.2631V51.6762C23.4159 52.9839 22.0004 53.8011 20.8679 53.1473L4.05563 43.4407C2.92319 42.7869 2.92319 41.1524 4.05563 40.4986L20.8679 30.792ZM26.4544 32.2771C26.4544 30.9695 27.8699 30.1522 29.0024 30.806L45.8146 40.5126C46.9471 41.1664 46.9471 42.801 45.8146 43.4548L29.0024 53.1614C27.8699 53.8152 26.4544 52.9979 26.4544 51.6903V32.2771Z" fill="#0076F2"/>
</svg>
